<svg width="512" height="512" viewBox="0 0 512 512" xmlns="http://www.w3.org/2000/svg">
  <defs>
    <linearGradient id="sheen" x1="120" y1="150" x2="430" y2="370" gradientUnits="userSpaceOnUse">
      <stop offset="0" stop-color="#ffffff"/>
      <stop offset="1" stop-color="#cccccc"/>
    </linearGradient>
  </defs>
  <rect width="512" height="512" rx="112" fill="#000000"/>
  <g transform="translate(76,143) scale(5.0)">
    <path fill="url(#sheen)" d="M55.39,20.78l7.32,14.64c.13.27-.06.58-.36.58h-8.11c-.15,0-.29-.09-.36-.22l-3.44-6.87c-.14-.27-.52-.3-.69-.04l-4.64,6.96c-.07.11-.2.18-.33.18h-8.39c-.22,0-.4-.18-.4-.4v-17.2c0-.22-.18-.4-.4-.4h-8.2c-.22,0-.4.18-.4.4v17.2c0,.22-.18.4-.4.4h-8.2c-.22,0-.4-.18-.4-.4v-17.2c0-.22-.18-.4-.4-.4h-8.2c-.22,0-.4-.18-.4-.4v-8.2c0-.22.18-.4.4-.4h35.2c.22,0,.4.18.4.4v11.78c0,.4.51.55.73.22l8.15-12.22c.07-.11.2-.18.33-.18h8.04c.32,0,.51.36.33.62l-7.17,10.75c-.08.12-.09.27-.02.4Z"/>
  </g>
</svg>
